<mxfile host="app.diagrams.net" agent="Mozilla/5.0 (Windows NT 10.0; Win64; x64) AppleWebKit/537.36 (KHTML, like Gecko) Chrome/131.0.0.0 Safari/537.36" version="26.0.2">
  <diagram name="Страница — 1" id="mfvDr763qeioa90Kr1xu">
    <mxGraphModel dx="2261" dy="1915" grid="1" gridSize="10" guides="1" tooltips="1" connect="1" arrows="1" fold="1" page="1" pageScale="1" pageWidth="827" pageHeight="1169" math="0" shadow="0">
      <root>
        <mxCell id="0" />
        <mxCell id="1" parent="0" />
        <mxCell id="rx369w3odF3UMx7AQMP6-1" value="Телеграм бот" style="rounded=1;whiteSpace=wrap;html=1;" parent="1" vertex="1">
          <mxGeometry x="240" y="320" width="120" height="70" as="geometry" />
        </mxCell>
        <mxCell id="ZKF0X6sjYYtKGc7rI8EO-1" value="Frontend" style="rounded=1;whiteSpace=wrap;html=1;" vertex="1" parent="1">
          <mxGeometry x="530" y="320" width="120" height="70" as="geometry" />
        </mxCell>
        <mxCell id="ZKF0X6sjYYtKGc7rI8EO-2" value="Backend" style="rounded=1;whiteSpace=wrap;html=1;" vertex="1" parent="1">
          <mxGeometry x="390" y="460" width="120" height="60" as="geometry" />
        </mxCell>
        <mxCell id="ZKF0X6sjYYtKGc7rI8EO-4" value="Сервис получения и обработки ссылок на подарки" style="ellipse;whiteSpace=wrap;html=1;" vertex="1" parent="1">
          <mxGeometry x="390" y="545" width="120" height="80" as="geometry" />
        </mxCell>
        <mxCell id="ZKF0X6sjYYtKGc7rI8EO-5" value="Сервис регистрации зон получения подарка" style="ellipse;whiteSpace=wrap;html=1;" vertex="1" parent="1">
          <mxGeometry x="530" y="545" width="120" height="80" as="geometry" />
        </mxCell>
        <mxCell id="ZKF0X6sjYYtKGc7rI8EO-6" value="" style="ellipse;whiteSpace=wrap;html=1;" vertex="1" parent="1">
          <mxGeometry x="250" y="545" width="120" height="80" as="geometry" />
        </mxCell>
        <mxCell id="ZKF0X6sjYYtKGc7rI8EO-7" value="Ссылки на подарки&lt;div&gt;&lt;br&gt;&lt;/div&gt;" style="ellipse;whiteSpace=wrap;html=1;" vertex="1" parent="1">
          <mxGeometry x="70" y="230" width="120" height="80" as="geometry" />
        </mxCell>
        <mxCell id="ZKF0X6sjYYtKGc7rI8EO-8" value="Зоны получения" style="ellipse;whiteSpace=wrap;html=1;" vertex="1" parent="1">
          <mxGeometry x="70" y="390" width="120" height="80" as="geometry" />
        </mxCell>
        <mxCell id="ZKF0X6sjYYtKGc7rI8EO-9" value="Ссылка на вишлист" style="ellipse;whiteSpace=wrap;html=1;" vertex="1" parent="1">
          <mxGeometry x="70" y="490" width="120" height="80" as="geometry" />
        </mxCell>
        <mxCell id="ZKF0X6sjYYtKGc7rI8EO-10" value="Добавление ссылки" style="ellipse;whiteSpace=wrap;html=1;" vertex="1" parent="1">
          <mxGeometry x="-50" y="100" width="90" height="60" as="geometry" />
        </mxCell>
        <mxCell id="ZKF0X6sjYYtKGc7rI8EO-11" value="Удаление ссылки" style="ellipse;whiteSpace=wrap;html=1;" vertex="1" parent="1">
          <mxGeometry x="-52.5" y="170" width="90" height="60" as="geometry" />
        </mxCell>
        <mxCell id="ZKF0X6sjYYtKGc7rI8EO-12" value="Пометить как получен( Удалится через месяц)" style="ellipse;whiteSpace=wrap;html=1;" vertex="1" parent="1">
          <mxGeometry x="-56.5" y="270" width="95" height="60" as="geometry" />
        </mxCell>
        <mxCell id="ZKF0X6sjYYtKGc7rI8EO-13" value="Добавление&amp;nbsp; Зоны(название + адрес&lt;span style=&quot;background-color: transparent; color: light-dark(rgb(0, 0, 0), rgb(255, 255, 255));&quot;&gt;)&lt;/span&gt;" style="ellipse;whiteSpace=wrap;html=1;" vertex="1" parent="1">
          <mxGeometry x="-56.5" y="360" width="93" height="65" as="geometry" />
        </mxCell>
        <mxCell id="ZKF0X6sjYYtKGc7rI8EO-14" value="Удаление зоны получения" style="ellipse;whiteSpace=wrap;html=1;" vertex="1" parent="1">
          <mxGeometry x="-59" y="460" width="100" height="60" as="geometry" />
        </mxCell>
        <mxCell id="ZKF0X6sjYYtKGc7rI8EO-16" value="" style="endArrow=classic;html=1;rounded=0;exitX=1;exitY=0.5;exitDx=0;exitDy=0;" edge="1" parent="1" source="ZKF0X6sjYYtKGc7rI8EO-10">
          <mxGeometry width="50" height="50" relative="1" as="geometry">
            <mxPoint x="370" y="460" as="sourcePoint" />
            <mxPoint x="70" y="270" as="targetPoint" />
          </mxGeometry>
        </mxCell>
        <mxCell id="ZKF0X6sjYYtKGc7rI8EO-17" value="" style="endArrow=classic;html=1;rounded=0;exitX=1;exitY=0.5;exitDx=0;exitDy=0;entryX=0;entryY=0.5;entryDx=0;entryDy=0;" edge="1" parent="1" source="ZKF0X6sjYYtKGc7rI8EO-11" target="ZKF0X6sjYYtKGc7rI8EO-7">
          <mxGeometry width="50" height="50" relative="1" as="geometry">
            <mxPoint x="370" y="460" as="sourcePoint" />
            <mxPoint x="260" y="190" as="targetPoint" />
          </mxGeometry>
        </mxCell>
        <mxCell id="ZKF0X6sjYYtKGc7rI8EO-18" value="" style="endArrow=classic;html=1;rounded=0;exitX=1;exitY=0.5;exitDx=0;exitDy=0;entryX=0;entryY=0.5;entryDx=0;entryDy=0;" edge="1" parent="1" source="ZKF0X6sjYYtKGc7rI8EO-12" target="ZKF0X6sjYYtKGc7rI8EO-7">
          <mxGeometry width="50" height="50" relative="1" as="geometry">
            <mxPoint x="370" y="460" as="sourcePoint" />
            <mxPoint x="90" y="340" as="targetPoint" />
          </mxGeometry>
        </mxCell>
        <mxCell id="ZKF0X6sjYYtKGc7rI8EO-19" value="" style="endArrow=classic;html=1;rounded=0;exitX=1;exitY=0.5;exitDx=0;exitDy=0;entryX=0;entryY=0.5;entryDx=0;entryDy=0;" edge="1" parent="1" source="ZKF0X6sjYYtKGc7rI8EO-13" target="ZKF0X6sjYYtKGc7rI8EO-8">
          <mxGeometry width="50" height="50" relative="1" as="geometry">
            <mxPoint x="370" y="460" as="sourcePoint" />
            <mxPoint x="420" y="410" as="targetPoint" />
          </mxGeometry>
        </mxCell>
        <mxCell id="ZKF0X6sjYYtKGc7rI8EO-20" value="" style="endArrow=classic;html=1;rounded=0;exitX=1;exitY=0.5;exitDx=0;exitDy=0;entryX=0;entryY=0.5;entryDx=0;entryDy=0;" edge="1" parent="1" source="ZKF0X6sjYYtKGc7rI8EO-14" target="ZKF0X6sjYYtKGc7rI8EO-8">
          <mxGeometry width="50" height="50" relative="1" as="geometry">
            <mxPoint x="370" y="460" as="sourcePoint" />
            <mxPoint x="420" y="410" as="targetPoint" />
          </mxGeometry>
        </mxCell>
        <mxCell id="ZKF0X6sjYYtKGc7rI8EO-22" value="ценовые группы для подарков" style="ellipse;whiteSpace=wrap;html=1;" vertex="1" parent="1">
          <mxGeometry x="90" y="10" width="100" height="70" as="geometry" />
        </mxCell>
        <mxCell id="ZKF0X6sjYYtKGc7rI8EO-23" value="создание ценовых групп" style="ellipse;whiteSpace=wrap;html=1;" vertex="1" parent="1">
          <mxGeometry x="-50" y="-60" width="90" height="50" as="geometry" />
        </mxCell>
        <mxCell id="ZKF0X6sjYYtKGc7rI8EO-24" value="удаление ценовых групп" style="ellipse;whiteSpace=wrap;html=1;" vertex="1" parent="1">
          <mxGeometry x="-47.5" y="10" width="90" height="60" as="geometry" />
        </mxCell>
        <mxCell id="ZKF0X6sjYYtKGc7rI8EO-25" value="" style="endArrow=classic;html=1;rounded=0;exitX=1;exitY=0.5;exitDx=0;exitDy=0;entryX=0;entryY=0.5;entryDx=0;entryDy=0;" edge="1" parent="1" source="ZKF0X6sjYYtKGc7rI8EO-23" target="ZKF0X6sjYYtKGc7rI8EO-22">
          <mxGeometry width="50" height="50" relative="1" as="geometry">
            <mxPoint x="390" y="140" as="sourcePoint" />
            <mxPoint x="440" y="90" as="targetPoint" />
          </mxGeometry>
        </mxCell>
        <mxCell id="ZKF0X6sjYYtKGc7rI8EO-26" value="" style="endArrow=classic;html=1;rounded=0;exitX=1;exitY=0.5;exitDx=0;exitDy=0;entryX=0;entryY=0.5;entryDx=0;entryDy=0;" edge="1" parent="1" source="ZKF0X6sjYYtKGc7rI8EO-24" target="ZKF0X6sjYYtKGc7rI8EO-22">
          <mxGeometry width="50" height="50" relative="1" as="geometry">
            <mxPoint x="390" y="140" as="sourcePoint" />
            <mxPoint x="440" y="90" as="targetPoint" />
          </mxGeometry>
        </mxCell>
        <mxCell id="ZKF0X6sjYYtKGc7rI8EO-29" value="&lt;h1 style=&quot;margin-top: 0px; line-height: 70%;&quot;&gt;&lt;font style=&quot;font-size: 17px; line-height: 70%;&quot;&gt;Сценарий&lt;/font&gt;&lt;/h1&gt;&lt;h1 style=&quot;margin-top: 0px; line-height: 80%;&quot;&gt;&lt;span style=&quot;background-color: transparent; color: light-dark(rgb(0, 0, 0), rgb(255, 255, 255)); font-weight: normal;&quot;&gt;&lt;font style=&quot;font-size: 11px; line-height: 80%;&quot;&gt;Идея в том что человек создаёт ценовые группы чтобы каждый подарок при выдаче на фронте был в разных группах по умолчанию ставится не оценено&lt;/font&gt;&lt;/span&gt;&lt;/h1&gt;&lt;p style=&quot;&quot;&gt;&lt;br&gt;&lt;/p&gt;" style="text;html=1;whiteSpace=wrap;overflow=hidden;rounded=0;align=center;" vertex="1" parent="1">
          <mxGeometry x="50" y="-190" width="180" height="140" as="geometry" />
        </mxCell>
        <mxCell id="ZKF0X6sjYYtKGc7rI8EO-30" value="" style="endArrow=classic;html=1;rounded=0;exitX=0.5;exitY=1;exitDx=0;exitDy=0;entryX=0.5;entryY=0;entryDx=0;entryDy=0;fillColor=#f8cecc;strokeColor=#b85450;" edge="1" parent="1" source="ZKF0X6sjYYtKGc7rI8EO-29" target="ZKF0X6sjYYtKGc7rI8EO-22">
          <mxGeometry width="50" height="50" relative="1" as="geometry">
            <mxPoint x="390" y="70" as="sourcePoint" />
            <mxPoint x="440" y="20" as="targetPoint" />
          </mxGeometry>
        </mxCell>
        <mxCell id="ZKF0X6sjYYtKGc7rI8EO-31" value="" style="endArrow=classic;html=1;rounded=0;exitX=1;exitY=1;exitDx=0;exitDy=0;entryX=0.5;entryY=0;entryDx=0;entryDy=0;" edge="1" parent="1" source="ZKF0X6sjYYtKGc7rI8EO-22" target="rx369w3odF3UMx7AQMP6-1">
          <mxGeometry width="50" height="50" relative="1" as="geometry">
            <mxPoint x="390" y="330" as="sourcePoint" />
            <mxPoint x="440" y="280" as="targetPoint" />
          </mxGeometry>
        </mxCell>
        <mxCell id="ZKF0X6sjYYtKGc7rI8EO-32" value="" style="endArrow=classic;html=1;rounded=0;exitX=1;exitY=0.5;exitDx=0;exitDy=0;entryX=0.5;entryY=0;entryDx=0;entryDy=0;" edge="1" parent="1" source="ZKF0X6sjYYtKGc7rI8EO-7" target="rx369w3odF3UMx7AQMP6-1">
          <mxGeometry width="50" height="50" relative="1" as="geometry">
            <mxPoint x="390" y="330" as="sourcePoint" />
            <mxPoint x="440" y="280" as="targetPoint" />
          </mxGeometry>
        </mxCell>
        <mxCell id="ZKF0X6sjYYtKGc7rI8EO-34" value="&lt;h1 style=&quot;text-align: center; margin-top: 0px; line-height: 80%;&quot;&gt;&lt;font style=&quot;font-size: 17px; line-height: 80%;&quot;&gt;Сценарий&lt;/font&gt;&lt;/h1&gt;&lt;p style=&quot;text-align: center; line-height: 80%;&quot;&gt;&lt;span style=&quot;font-size: 11px; line-height: 80%;&quot;&gt;Человек берёт ссылку кидает в бот, бот предлагает выбрать ценовую группу и после этого отправляет данные на бэк,&lt;/span&gt;&lt;/p&gt;&lt;p style=&quot;text-align: center; line-height: 80%;&quot;&gt;&lt;span style=&quot;font-size: 11px; line-height: 80%;&quot;&gt;Удаление:Человек просто удаляет ссылку&lt;/span&gt;&lt;/p&gt;&lt;p style=&quot;text-align: center; line-height: 80%;&quot;&gt;&lt;span style=&quot;font-size: 11px; line-height: 80%;&quot;&gt;Изменение ценовой групы подарка: человек хочет поменять ценовую группы ввиду каких-то обстоятельств&lt;/span&gt;&lt;/p&gt;&lt;p style=&quot;text-align: center; line-height: 80%;&quot;&gt;&lt;span style=&quot;font-size: 11px; line-height: 80%;&quot;&gt;Пометить как получено: подарок отмечается как полученый, при этом будет удалён через некоторое время.&lt;/span&gt;&lt;/p&gt;&lt;p style=&quot;text-align: center;&quot;&gt;&lt;span style=&quot;font-size: 11px;&quot;&gt;&lt;br&gt;&lt;/span&gt;&lt;/p&gt;" style="text;html=1;whiteSpace=wrap;overflow=hidden;rounded=0;" vertex="1" parent="1">
          <mxGeometry x="-260" y="160" width="180" height="215" as="geometry" />
        </mxCell>
        <mxCell id="ZKF0X6sjYYtKGc7rI8EO-35" value="" style="endArrow=classic;html=1;rounded=0;exitX=0.978;exitY=0.464;exitDx=0;exitDy=0;exitPerimeter=0;fillColor=#f8cecc;strokeColor=#b85450;" edge="1" parent="1" source="ZKF0X6sjYYtKGc7rI8EO-34">
          <mxGeometry width="50" height="50" relative="1" as="geometry">
            <mxPoint x="390" y="330" as="sourcePoint" />
            <mxPoint x="70" y="260" as="targetPoint" />
          </mxGeometry>
        </mxCell>
        <mxCell id="ZKF0X6sjYYtKGc7rI8EO-36" value="Изменение ценовой группы подарка" style="ellipse;whiteSpace=wrap;html=1;" vertex="1" parent="1">
          <mxGeometry x="70" y="110" width="90" height="70" as="geometry" />
        </mxCell>
        <mxCell id="ZKF0X6sjYYtKGc7rI8EO-37" value="" style="endArrow=classic;html=1;rounded=0;exitX=0.5;exitY=1;exitDx=0;exitDy=0;entryX=0.5;entryY=0;entryDx=0;entryDy=0;" edge="1" parent="1" source="ZKF0X6sjYYtKGc7rI8EO-36" target="ZKF0X6sjYYtKGc7rI8EO-7">
          <mxGeometry width="50" height="50" relative="1" as="geometry">
            <mxPoint x="390" y="330" as="sourcePoint" />
            <mxPoint x="440" y="280" as="targetPoint" />
          </mxGeometry>
        </mxCell>
        <mxCell id="ZKF0X6sjYYtKGc7rI8EO-38" value="&lt;h1 style=&quot;margin-top: 0px; line-height: 70%;&quot;&gt;&lt;span style=&quot;background-color: transparent; color: light-dark(rgb(0, 0, 0), rgb(255, 255, 255)); font-size: 17px; line-height: 70%;&quot;&gt;Сценарий&lt;/span&gt;&lt;/h1&gt;&lt;h1 style=&quot;margin-top: 0px; line-height: 70%;&quot;&gt;&lt;span style=&quot;font-size: 11px; background-color: transparent; color: light-dark(rgb(0, 0, 0), rgb(255, 255, 255)); font-weight: normal; line-height: 70%;&quot;&gt;Пользователь задаёт зоны получения для подарков, наример для озона, сдэка, вайлдберис и тд, чтобы не давать свой адрес.&lt;/span&gt;&lt;/h1&gt;" style="text;html=1;whiteSpace=wrap;overflow=hidden;rounded=0;align=center;" vertex="1" parent="1">
          <mxGeometry x="-260" y="390" width="180" height="120" as="geometry" />
        </mxCell>
        <mxCell id="ZKF0X6sjYYtKGc7rI8EO-39" value="" style="endArrow=classic;html=1;rounded=0;exitX=1.011;exitY=0.408;exitDx=0;exitDy=0;exitPerimeter=0;entryX=0;entryY=0.5;entryDx=0;entryDy=0;fillColor=#f8cecc;strokeColor=#b85450;" edge="1" parent="1" source="ZKF0X6sjYYtKGc7rI8EO-38" target="ZKF0X6sjYYtKGc7rI8EO-8">
          <mxGeometry width="50" height="50" relative="1" as="geometry">
            <mxPoint x="390" y="600" as="sourcePoint" />
            <mxPoint x="440" y="550" as="targetPoint" />
          </mxGeometry>
        </mxCell>
      </root>
    </mxGraphModel>
  </diagram>
</mxfile>
